<?xml version="1.0" encoding="UTF-8"?>
<svg xmlns="http://www.w3.org/2000/svg" version="1.1" viewBox="0 0 998.05 289.98">
  <defs>
    <style>
      .cls-1 {
        font-family: MyriadPro-Bold, 'Myriad Pro';
        font-size: 12px;
        font-weight: 700;
      }

      .cls-1, .cls-2, .cls-3 {
        fill: #231f20;
      }

      .cls-4, .cls-2, .cls-3, .cls-5, .cls-6 {
        stroke-miterlimit: 10;
      }

      .cls-4, .cls-2, .cls-3, .cls-6 {
        stroke: #231f20;
      }

      .cls-4, .cls-5 {
        fill: none;
      }

      .cls-7 {
        fill: #c9d66d;
        fill-opacity: .63;
      }

      .cls-7, .cls-8, .cls-9 {
        stroke-width: 0px;
      }

      .cls-7, .cls-5 {
        mix-blend-mode: multiply;
      }

      .cls-2 {
        font-family: MuktaVaani-Regular, 'Mukta Vaani';
      }

      .cls-2, .cls-3 {
        font-size: 14px;
        stroke-width: .2px;
      }

      .cls-8 {
        fill: #a9b538;
      }

      .cls-3 {
        font-family: MyriadPro-Regular, 'Myriad Pro';
      }

      .cls-5 {
        stroke: #a9b538;
        stroke-width: 1.71px;
      }

      .cls-6, .cls-9 {
        fill: #fff;
      }

      .cls-10 {
        isolation: isolate;
      }
    </style>
  </defs>
  <g class="cls-10">
    <g id="Layer_1" data-name="Layer 1">
      <rect class="cls-7" x="648.48" y="61.4" width="299.77" height="165.96"/>
      <g>
        <rect class="cls-8" x="596.17" y="142.05" width="28.99" height="13.06"/>
        <polygon class="cls-8" points="640.07 148.25 620.61 131.5 620.61 165.01 640.07 148.25"/>
      </g>
      <rect class="cls-5" x="93.51" y="61.4" width="491.73" height="164.47"/>
      <text class="cls-1" transform="translate(284.04 75.47)"><tspan x="0" y="0">Merge the two files</tspan></text>
      <text class="cls-1" transform="translate(745.49 75.47)"><tspan x="0" y="0">Resulting in one file</tspan></text>
      <g id="merged_file">
        <rect id="border" class="cls-9" x="668.27" y="81.51" width="260.7" height="135.46"/>
        <rect id="rectangle" class="cls-6" x="673.28" y="85.3" width="250.49" height="127.79"/>
        <g id="grid">
          <line class="cls-4" x1="673.19" y1="128.69" x2="923.69" y2="128.69"/>
          <line class="cls-4" x1="673.37" y1="149.71" x2="923.87" y2="149.71"/>
          <line class="cls-4" x1="673.37" y1="170.26" x2="923.87" y2="170.26"/>
          <line class="cls-4" x1="673.28" y1="190.8" x2="923.78" y2="190.8"/>
          <line class="cls-4" x1="742.71" y1="213.09" x2="742.71" y2="128.31"/>
          <line class="cls-4" x1="785.49" y1="213.09" x2="785.49" y2="128.31"/>
          <line class="cls-4" x1="860.08" y1="213.09" x2="860.08" y2="128.31"/>
          <line class="cls-4" x1="673.28" y1="107.92" x2="923.78" y2="107.92"/>
        </g>
        <g id="content">
          <text class="cls-3" transform="translate(692.11 145.04)"><tspan x="0" y="0">HHID</tspan></text>
          <text class="cls-3" transform="translate(756.14 144.3)"><tspan x="0" y="0">PN</tspan></text>
          <text class="cls-3" transform="translate(797.12 144.3)"><tspan x="0" y="0">RSUBHH</tspan></text>
          <text class="cls-2" transform="translate(686.03 163.73)"><tspan x="0" y="0">123456</tspan></text>
          <text class="cls-2" transform="translate(686.8 184.87)"><tspan x="0" y="0">123456</tspan></text>
          <text class="cls-2" transform="translate(686.8 208.1)"><tspan x="0" y="0">234567</tspan></text>
          <text class="cls-2" transform="translate(753.06 163.85)"><tspan x="0" y="0">010</tspan></text>
          <text class="cls-2" transform="translate(753.66 185.52)"><tspan x="0" y="0">020</tspan></text>
          <text class="cls-2" transform="translate(753.66 208.76)"><tspan x="0" y="0">010</tspan></text>
          <text class="cls-2" transform="translate(795.92 162.41)"><tspan x="0" y="0">0</tspan></text>
          <text class="cls-2" transform="translate(796.52 184.09)"><tspan x="0" y="0">0</tspan></text>
          <text class="cls-2" transform="translate(797.12 207.57)"><tspan x="0" y="0">1</tspan></text>
          <text class="cls-3" transform="translate(872.81 144.3)"><tspan x="0" y="0">RQ020</tspan></text>
          <text class="cls-2" transform="translate(875.35 165.66)"><tspan x="0" y="0">3500</tspan></text>
          <text class="cls-2" transform="translate(874.77 187.46)"><tspan x="0" y="0">3500</tspan></text>
          <text class="cls-2" transform="translate(873.88 207.57)"><tspan x="0" y="0">10000</tspan></text>
          <text class="cls-2" transform="translate(766.07 100.8)"><tspan x="0" y="0">HRS2020_3</tspan></text>
        </g>
      </g>
      <g id="right_file">
        <rect id="border-2" data-name="border" class="cls-9" x="335.07" y="102.52" width="233.23" height="98.63"/>
        <rect id="rectangle-2" data-name="rectangle" class="cls-6" x="339.92" y="107.53" width="223.52" height="88.61"/>
        <g id="grid-2" data-name="grid">
          <line class="cls-4" x1="340.42" y1="129.86" x2="563.69" y2="129.86"/>
          <line class="cls-4" x1="340.58" y1="152.22" x2="563.86" y2="152.22"/>
          <line class="cls-4" x1="340.58" y1="174.08" x2="563.86" y2="174.08"/>
          <line class="cls-4" x1="418.5" y1="195.94" x2="418.51" y2="129.45"/>
          <line class="cls-4" x1="496.87" y1="196.13" x2="496.87" y2="129.64"/>
        </g>
        <g>
          <text class="cls-3" transform="translate(364.87 147.16)"><tspan x="0" y="0">HHID</tspan></text>
          <text class="cls-2" transform="translate(358.28 167.45)"><tspan x="0" y="0">123456</tspan></text>
          <text class="cls-3" transform="translate(430.97 149.08)"><tspan x="0" y="0">RSUBHH</tspan></text>
          <text class="cls-2" transform="translate(429.77 167.2)"><tspan x="0" y="0">0</tspan></text>
          <text class="cls-2" transform="translate(430.37 188.87)"><tspan x="0" y="0">1</tspan></text>
          <text class="cls-3" transform="translate(509.66 147.52)"><tspan x="0" y="0">RQ020</tspan></text>
          <text class="cls-2" transform="translate(512.2 168.89)"><tspan x="0" y="0">3500</tspan></text>
          <text class="cls-2" transform="translate(511.62 190.68)"><tspan x="0" y="0">10000</tspan></text>
          <text class="cls-2" transform="translate(359.57 190.68)"><tspan x="0" y="0">234567</tspan></text>
          <text class="cls-2" transform="translate(430.37 122.48)"><tspan x="0" y="0">H20Q_H</tspan></text>
        </g>
      </g>
      <g id="left_file">
        <rect id="border-3" data-name="border" class="cls-9" x="103.99" y="90.84" width="209.24" height="121.99"/>
        <rect id="rectangle-3" data-name="rectangle" class="cls-6" x="109.26" y="95.71" width="198.84" height="112.86"/>
        <g id="grid-3" data-name="grid">
          <line class="cls-4" x1="109.26" y1="117.81" x2="307.95" y2="117.81"/>
          <line class="cls-4" x1="109.41" y1="140.17" x2="308.1" y2="140.17"/>
          <line class="cls-4" x1="109.41" y1="162.03" x2="308.1" y2="162.03"/>
          <line class="cls-4" x1="109.34" y1="183.89" x2="308.03" y2="183.89"/>
          <line class="cls-4" x1="183.23" y1="207.6" x2="183.23" y2="117.4"/>
          <line class="cls-4" x1="228.75" y1="207.6" x2="228.75" y2="117.4"/>
          <line class="cls-4" x1="308.1" y1="207.6" x2="308.1" y2="117.4"/>
        </g>
        <g id="content-2" data-name="content">
          <text class="cls-3" transform="translate(174.47 111.78)"><tspan x="0" y="0">Trk2020tr_r</tspan></text>
          <text class="cls-3" transform="translate(130.37 134.85)"><tspan x="0" y="0">HHID</tspan></text>
          <text class="cls-3" transform="translate(197.7 135.09)"><tspan x="0" y="0">PN</tspan></text>
          <text class="cls-3" transform="translate(244.79 134.93)"><tspan x="0" y="0">RSUBHH</tspan></text>
          <text class="cls-2" transform="translate(125.36 156.78)"><tspan x="0" y="0">123456</tspan></text>
          <text class="cls-2" transform="translate(126.13 177.92)"><tspan x="0" y="0">123456</tspan></text>
          <text class="cls-2" transform="translate(126.13 201.15)"><tspan x="0" y="0">234567</tspan></text>
          <text class="cls-2" transform="translate(194.86 156.25)"><tspan x="0" y="0">010</tspan></text>
          <text class="cls-2" transform="translate(195.46 177.92)"><tspan x="0" y="0">020</tspan></text>
          <text class="cls-2" transform="translate(195.46 201.15)"><tspan x="0" y="0">010</tspan></text>
          <text class="cls-2" transform="translate(243.13 156.37)"><tspan x="0" y="0">0</tspan></text>
          <text class="cls-2" transform="translate(243.13 178.05)"><tspan x="0" y="0">0</tspan></text>
          <text class="cls-2" transform="translate(243.74 201.15)"><tspan x="0" y="0">1</tspan></text>
        </g>
      </g>
    </g>
  </g>
</svg>